<svg width="184" height="47" fill="none" xmlns="http://www.w3.org/2000/svg"><path fill-rule="evenodd" clip-rule="evenodd" d="M72.312 31.813l-.31-.882-.71-2.033-.71-2.032-.31-.883h-8.071l-2.04 5.83h-2.657l7.481-20.369h2.503l7.482 20.37h-2.658zm-6.117-17.277l-.33.938a439 439 0 00-.81 2.322c-.318.923-.64 1.845-.963 2.767l-.815 2.322-.33.939h6.58l-3.248-9.288h-.084zm18.421 1.92c1.932 0 3.497.71 4.697 2.13 1.2 1.422 1.8 3.295 1.8 5.619s-.595 4.197-1.786 5.618c-1.19 1.42-2.742 2.131-4.654 2.131-1.078 0-2.035-.228-2.869-.684a5.012 5.012 0 01-1.969-1.927h-.056v7.552h-2.447V16.596h2.32v2.47h.057c.44-.79 1.106-1.423 1.997-1.898a6.082 6.082 0 012.91-.713zm-.45 13.31c1.341 0 2.417-.505 3.228-1.517.811-1.012 1.216-2.36 1.216-4.044 0-1.685-.405-3.033-1.216-4.044-.811-1.012-1.887-1.518-3.228-1.518-1.303 0-2.362.513-3.178 1.539-.815 1.026-1.223 2.367-1.223 4.023 0 1.656.408 2.997 1.223 4.023.816 1.026 1.875 1.538 3.178 1.538zm17.157-13.31c1.931 0 3.497.71 4.697 2.13 1.2 1.422 1.8 3.295 1.8 5.619s-.596 4.197-1.786 5.618c-1.191 1.42-2.742 2.131-4.655 2.131-1.078 0-2.034-.228-2.869-.684a5.019 5.019 0 01-1.969-1.927h-.056v7.552h-2.447V16.596h2.321v2.47h.056c.441-.79 1.106-1.423 1.997-1.898a6.086 6.086 0 012.911-.713zm-.45 13.31c1.34 0 2.416-.505 3.227-1.517.811-1.012 1.216-2.36 1.216-4.044 0-1.685-.405-3.033-1.216-4.044-.811-1.012-1.887-1.518-3.227-1.518-1.303 0-2.363.513-3.178 1.539-.816 1.026-1.224 2.367-1.224 4.023 0 1.656.408 2.997 1.224 4.023.815 1.026 1.875 1.538 3.178 1.538zm16.453-3.557c.122 1.798.869 3.238 2.243 4.32 1.373 1.082 3.133 1.623 5.28 1.623 2.335 0 4.184-.543 5.548-1.63 1.364-1.087 2.046-2.562 2.046-4.426 0-1.458-.459-2.625-1.378-3.5-.919-.875-2.428-1.577-4.528-2.104l-2.124-.564c-1.378-.358-2.369-.784-2.974-1.278s-.907-1.127-.907-1.898c0-.998.415-1.807 1.245-2.428.829-.621 1.9-.932 3.213-.932 1.322 0 2.395.316 3.22.946.825.63 1.294 1.492 1.407 2.583h2.531c-.056-1.713-.746-3.11-2.067-4.192-1.322-1.082-2.991-1.623-5.007-1.623-2.109 0-3.832.536-5.168 1.609-1.336 1.072-2.004 2.456-2.004 4.15 0 2.663 1.8 4.456 5.4 5.378l2.602.677c1.369.348 2.365.8 2.988 1.355.624.556.935 1.266.935 2.132 0 .997-.447 1.823-1.342 2.477-.896.654-2.028.981-3.397.981-1.443 0-2.643-.334-3.6-1.002-.956-.668-1.495-1.553-1.617-2.654h-2.545zm18.914-13.043v3.43h-2.109v2.033h2.109v9.232c0 1.459.293 2.5.879 3.127.586.625 1.563.938 2.932.938.291 0 .588-.012.893-.035a4.44 4.44 0 00.682-.092v-2.075c-.084.01-.244.024-.478.043a7.513 7.513 0 01-.577.028c-.647 0-1.122-.165-1.427-.494-.305-.33-.457-.843-.457-1.539V18.63h2.953v-2.033h-2.953v-3.43h-2.447zm14.709 18.788c-2.128 0-3.825-.703-5.09-2.11-1.266-1.407-1.899-3.287-1.899-5.64 0-2.361.633-4.243 1.899-5.645 1.265-1.403 2.962-2.104 5.09-2.104 2.129 0 3.825.701 5.091 2.104 1.266 1.402 1.898 3.284 1.898 5.646 0 2.353-.632 4.232-1.898 5.64-1.266 1.406-2.962 2.11-5.091 2.11zm0-2.188c1.416 0 2.52-.491 3.312-1.475.792-.983 1.188-2.345 1.188-4.086 0-1.75-.396-3.115-1.188-4.094-.792-.978-1.896-1.468-3.312-1.468-1.415 0-2.519.492-3.311 1.475-.793.984-1.189 2.346-1.189 4.087 0 1.74.399 3.103 1.196 4.086.797.984 1.898 1.476 3.304 1.476zm9.914 2.047h2.447v-9.415c0-1.073.298-1.939.893-2.597.596-.659 1.385-.988 2.37-.988.3 0 .574.014.823.042.248.028.419.061.513.099V16.54a5.98 5.98 0 00-1.013-.085c-.881 0-1.657.236-2.327.706a3.377 3.377 0 00-1.343 1.906h-.056v-2.47h-2.307v15.216zm15.525-13.198c-1.19 0-2.177.395-2.96 1.186-.782.79-1.216 1.83-1.3 3.12h8.339c-.029-1.29-.415-2.33-1.161-3.12-.745-.79-1.718-1.186-2.918-1.186zm4.022 8.85h2.419c-.206 1.309-.9 2.384-2.081 3.226-1.181.842-2.583 1.263-4.205 1.263-2.128 0-3.818-.694-5.069-2.082-1.252-1.388-1.878-3.258-1.878-5.61 0-2.363.624-4.254 1.871-5.675 1.246-1.421 2.901-2.132 4.964-2.132 2.025 0 3.628.669 4.809 2.005 1.181 1.336 1.772 3.157 1.772 5.463v.96h-10.884v.14c0 1.45.407 2.607 1.223 3.473.816.866 1.898 1.299 3.248 1.299.947 0 1.765-.21 2.454-.628.689-.42 1.142-.986 1.357-1.701zM28.314.053c-2.325.097-5.142 1.548-6.809 3.5-1.499 1.732-2.807 4.497-2.454 7.148 2.595.203 5.24-1.318 6.856-3.27 1.613-1.955 2.704-4.668 2.407-7.378zm-.657 46.138c3.15-.059 5.145-2.858 7.074-5.674 2.113-3.085 3.047-6.076 3.186-6.522l.016-.05a.595.595 0 00-.012-.005c-.302-.123-6.133-2.491-6.191-9.338-.057-5.654 4.457-8.467 4.953-8.776l.036-.023c-2.716-3.968-6.945-4.512-8.452-4.575-2.201-.222-4.337.619-6.082 1.306-1.109.436-2.06.81-2.77.81-.79 0-1.767-.387-2.863-.822-1.436-.569-3.075-1.22-4.768-1.188-3.922.059-7.54 2.28-9.56 5.791-4.078 7.07-1.046 17.547 2.927 23.28 1.945 2.803 4.257 5.958 7.298 5.845 1.358-.055 2.324-.466 3.324-.89 1.155-.492 2.354-1.002 4.253-1.002 1.808 0 2.951.494 4.051.97 1.052.454 2.064.892 3.58.863z" fill="#fff"/></svg>