<svg width="18" height="18" fill="none" xmlns="http://www.w3.org/2000/svg"><path fill-rule="evenodd" clip-rule="evenodd" d="M4.142 2.333a2.5 2.5 0 014.716 0h8.475V4H8.858a2.5 2.5 0 01-4.716 0H.667V2.333h3.475zM11.5 6.498a2.5 2.5 0 00-2.358 1.669H.667v1.666h8.475a2.5 2.5 0 004.716 0h3.475V8.167h-3.475A2.5 2.5 0 0011.5 6.498zm-5 5.833A2.5 2.5 0 004.142 14H.667v1.667h3.475a2.5 2.5 0 004.716 0h8.475V14H8.858A2.5 2.5 0 006.5 12.331zm.833-9.164a.833.833 0 11-1.666 0 .833.833 0 011.666 0zM11.5 9.833a.833.833 0 100-1.666.833.833 0 000 1.666zm-4.167 5a.833.833 0 11-1.666 0 .833.833 0 011.666 0z" fill="#000"/></svg>