<svg width="188" height="46" fill="none" xmlns="http://www.w3.org/2000/svg"><path fill-rule="evenodd" clip-rule="evenodd" d="M155.353 23.845c0 .962-.115 1.84-.343 2.637-.228.796-.563 1.48-1.003 2.052a4.649 4.649 0 01-1.613 1.336c-.636.32-1.36.48-2.174.48-.964 0-1.796-.164-2.498-.492a4.735 4.735 0 01-1.738-1.354v6.528h-1.482V17.317h1.382l.075 1.81a4.851 4.851 0 011.732-1.503c.698-.362 1.528-.544 2.492-.544.822 0 1.555.154 2.198.461a4.464 4.464 0 011.626 1.313c.44.568.775 1.252 1.003 2.052.228.8.343 1.697.343 2.69v.249zm-1.495-.249c0-.74-.081-1.434-.243-2.081a5.088 5.088 0 00-.735-1.68 3.546 3.546 0 00-1.252-1.117c-.507-.272-1.101-.408-1.782-.408a4.67 4.67 0 00-1.433.201 3.903 3.903 0 00-1.09.538 3.647 3.647 0 00-.797.78c-.22.296-.401.606-.542.93v6.137c.158.323.355.623.592.899s.515.514.835.715c.319.201.683.359 1.09.473.407.115.863.172 1.37.172.681 0 1.271-.136 1.769-.408a3.558 3.558 0 001.24-1.124 5.157 5.157 0 00.735-1.685 8.594 8.594 0 00.243-2.093v-.249zm6.466 6.517h-1.495V11.948h1.495v18.165zm12.558 0a3.848 3.848 0 01-.194-.81c-.045-.32-.076-.645-.093-.976a5.16 5.16 0 01-.797.78 5.334 5.334 0 01-1.034.64 6.295 6.295 0 01-2.741.603 5.536 5.536 0 01-1.788-.273 4.047 4.047 0 01-1.37-.763 3.356 3.356 0 01-1.19-2.596c0-.622.141-1.184.423-1.685.283-.5.69-.926 1.221-1.277.532-.35 1.178-.619 1.938-.804.76-.185 1.613-.278 2.56-.278h2.766v-1.455c0-.914-.297-1.634-.891-2.158-.594-.524-1.46-.786-2.598-.786-.523 0-1.005.067-1.445.2-.44.135-.82.32-1.14.556-.32.237-.569.511-.747.822a1.972 1.972 0 00-.268 1l-1.495-.012c0-.481.124-.946.374-1.396.249-.449.6-.85 1.052-1.2.453-.35.997-.633 1.632-.846a6.626 6.626 0 012.112-.319c.714 0 1.372.087 1.975.26a4.384 4.384 0 011.551.78c.432.348.768.781 1.009 1.302.241.52.361 1.127.361 1.821v6.197c0 .22.008.45.025.686.017.236.044.465.081.686.037.22.081.431.131.633.05.2.108.376.174.526v.142h-1.594zm-4.685-1.017c.54 0 1.04-.065 1.501-.195.461-.13.879-.31 1.252-.539.374-.228.698-.494.972-.798a4.03 4.03 0 00.661-.987v-2.815h-2.554a9.75 9.75 0 00-2.05.195c-.602.13-1.111.317-1.526.562-.415.244-.733.542-.953.893-.22.35-.33.747-.33 1.188 0 .347.07.672.212.976.141.303.342.568.604.792.261.225.579.402.953.533.374.13.793.195 1.258.195zm14.115-1.017l3.937-10.762h1.607l-5.706 14.842a13.6 13.6 0 01-.442.981 4.393 4.393 0 01-.697 1.017 3.674 3.674 0 01-1.072.799c-.428.216-.949.325-1.563.325-.083 0-.179-.006-.287-.018a8.964 8.964 0 01-.324-.041 5.255 5.255 0 01-.536-.107l-.012-1.17a7.704 7.704 0 00.772.07c.399 0 .752-.049 1.059-.147.308-.099.576-.245.804-.438.228-.193.43-.436.604-.727a6.16 6.16 0 00.474-1.006l.647-1.69-5.083-12.69h1.632l4.186 10.762zM.394 3.929V42.15c0 1.33.78 2.48 1.913 3.03l22.43-22.148L2.316.895A3.37 3.37 0 00.394 3.929zm7.16 39.823l24.342-13.595-5.144-4.977L7.553 43.752zM39.23 21.034c.765.627 1.258 1.613 1.258 2.723a3.51 3.51 0 01-1.224 2.693l-4.885 3.016-5.346-5.716 5.342-5.712 4.855 2.997zm-7.334-5.115L7.553 2.323l19.2 18.572 5.143-4.976zm56.639 15.216c3.365 0 6.107-2.585 6.107-6.093 0-3.532-2.742-6.092-6.107-6.092-3.364 0-6.106 2.56-6.106 6.092 0 3.508 2.742 6.093 6.106 6.093zm0-9.784c1.845 0 3.434 1.5 3.434 3.691 0 2.168-1.589 3.692-3.434 3.692-1.844 0-3.433-1.522-3.433-3.692 0-2.191 1.589-3.691 3.433-3.691zm13.57 9.784c3.365 0 6.107-2.585 6.107-6.093 0-3.532-2.742-6.092-6.107-6.092s-6.107 2.563-6.107 6.092c0 3.508 2.742 6.093 6.107 6.093zm0-9.784c1.844 0 3.434 1.5 3.434 3.691 0 2.168-1.59 3.692-3.434 3.692s-3.433-1.522-3.433-3.692c0-2.191 1.589-3.691 3.433-3.691zm19.677 8.878V19.32h-2.657v.99h-.097c-.629-.716-1.836-1.36-3.355-1.36-3.186 0-6.104 2.67-6.104 6.1 0 3.406 2.918 6.053 6.104 6.053 1.522 0 2.729-.644 3.355-1.381h.097v.874c0 2.326-1.301 3.562-3.4 3.562-1.712 0-2.775-1.167-3.209-2.157l-2.436.968c.701 1.61 2.56 3.581 5.647 3.581 3.281 0 6.055-1.833 6.055-6.321zm-5.859-8.884c1.904 0 3.401 1.565 3.401 3.705 0 2.118-1.497 3.66-3.401 3.66-1.93 0-3.548-1.542-3.548-3.66 0-2.14 1.618-3.705 3.548-3.705z" fill="#fff"/><path d="M125.853 13.535v16.246h-2.714V13.535h2.714z" fill="#fff"/><path fill-rule="evenodd" clip-rule="evenodd" d="M137.955 28.435l-2.006-1.385c-.669 1.017-1.582 1.687-2.898 1.687-1.313 0-2.25-.624-2.853-1.846l7.869-3.373-.268-.692c-.489-1.36-1.983-3.876-5.037-3.876-3.033 0-5.552 2.47-5.552 6.092 0 3.417 2.497 6.093 5.841 6.093 2.696 0 4.257-1.709 4.904-2.7zm-2.922-5.837l-5.259 2.26c-.067-2.35 1.762-3.551 3.075-3.551 1.025 0 1.895.53 2.184 1.29z" fill="#fff"/><path d="M72.612 22.642v-2.404h8.336c.081.419.123.914.123 1.45 0 1.805-.507 4.035-2.142 5.625-1.59 1.61-3.623 2.468-6.314 2.468-4.99 0-9.185-3.95-9.185-8.8 0-4.85 4.195-8.8 9.185-8.8 2.76 0 4.726 1.053 6.204 2.425l-1.746 1.697c-1.06-.966-2.495-1.718-4.46-1.718-3.644 0-6.494 2.855-6.494 6.396s2.85 6.396 6.493 6.396c2.363 0 3.71-.923 4.571-1.76.7-.68 1.16-1.652 1.341-2.978l-5.912.003z" fill="#fff"/></svg>