<svg width="52" height="55" fill="none" xmlns="http://www.w3.org/2000/svg"><path fill-rule="evenodd" clip-rule="evenodd" d="M31.86 53.459c0-.12.114-.211.231-.211h.12l.134-.548c.03-.104.117-.157.23-.157.104.01.205.097.201.203 0 .007 0 .027-.006.044l-.11.458h.153l.134-.548c.03-.104.117-.157.23-.157.114.01.208.1.2.21 0 .01-.002.023-.006.037l-.11.458c.114.003.224.094.224.21 0 .12-.1.214-.23.214h-.094l-.034.128h.027c.117 0 .23.093.23.213s-.1.214-.23.214h-.127l-.134.555c-.03.103-.117.157-.23.157a.212.212 0 01-.204-.208l.007-.03.113-.474h-.154l-.133.555c-.03.103-.117.157-.23.157-.108-.01-.205-.097-.205-.208l.007-.03.114-.474c-.124-.007-.218-.097-.218-.214 0-.12.114-.213.231-.213h.087l.033-.128h-.02c-.13 0-.23-.093-.23-.213zm.853.213h-.154l-.033.128h.153l.034-.128z" fill="#800A7A"/><path d="M34.273 53.95h.632c.13 0 .23-.094.23-.214s-.113-.211-.23-.211h-.632v-.541h.695c.127 0 .234-.087.234-.208 0-.117-.107-.216-.234-.216h-.905c-.147 0-.258.12-.258.236v1.94c0 .113.104.213.234.213.127 0 .234-.1.234-.214v-.785z" fill="#800A7A"/><path fill-rule="evenodd" clip-rule="evenodd" d="M36.519 54.454h-.712l-.11.337a.25.25 0 01-.22.158c-.131 0-.241-.087-.241-.214a.27.27 0 01.01-.074l.651-1.9c.044-.132.11-.228.27-.228.161 0 .228.093.275.227l.652 1.901a.28.28 0 01.01.074c0 .127-.104.214-.241.214a.256.256 0 01-.227-.157l-.117-.338zm-.588-.38h.468l-.17-.572a2.12 2.12 0 01-.061-.328c-.013.104-.03.23-.06.328l-.177.571z" fill="#800A7A"/><path d="M38.4 54.237c0 .184-.117.287-.348.287-.143 0-.25-.04-.33-.067a.517.517 0 00-.168-.04.22.22 0 00-.22.21c0 .235.468.322.715.322.478 0 .832-.268.832-.732 0-.475-.357-.588-.685-.691a1.27 1.27 0 01-.24-.091c-.057-.027-.14-.077-.14-.224 0-.197.153-.254.317-.254.117 0 .19.027.254.05.056.017.103.037.163.037.147 0 .234-.1.234-.21 0-.25-.474-.301-.671-.301-.475 0-.776.26-.776.692 0 .484.355.595.682.695.09.03.174.06.244.09.06.026.137.077.137.227zm1.25.498c0 .114.104.214.234.214.127 0 .234-.1.234-.214v-1.748h.354c.127 0 .237-.096.237-.21 0-.12-.116-.214-.237-.214h-1.176c-.13 0-.234.12-.234.214 0 .114.1.21.234.21h.354v1.748zm2.79-.785h.632c.13 0 .23-.094.23-.214s-.113-.211-.23-.211h-.632v-.541h.695c.128 0 .234-.087.234-.208 0-.117-.106-.216-.234-.216h-.905c-.147 0-.258.12-.258.236v1.94c0 .113.104.213.235.213.127 0 .233-.1.233-.214v-.785z" fill="#800A7A"/><path fill-rule="evenodd" clip-rule="evenodd" d="M45.35 54.07c0 .488-.29.879-.868.879-.578 0-.869-.391-.869-.88v-.661c0-.475.244-.875.87-.875.624 0 .868.4.868.875v.662zm-.467-.662c0-.27-.107-.451-.4-.451-.295 0-.402.18-.402.451v.662c0 .267.127.454.401.454s.401-.187.401-.454v-.662zm2.507.662c0 .488-.291.879-.87.879-.578 0-.868-.391-.868-.88v-.661c0-.475.243-.875.868-.875s.87.4.87.875v.662zm-.469-.662c0-.27-.107-.451-.4-.451-.295 0-.401.18-.401.451v.662c0 .267.126.454.4.454s.401-.187.401-.454v-.662zm2.483.03v.575c0 .471-.257.905-1.015.905h-.378c-.14 0-.26-.11-.26-.24V52.8c0-.13.12-.24.26-.24h.378c.755 0 1.015.414 1.015.878zm-.959 1.056c.368 0 .492-.217.492-.481v-.575c0-.254-.13-.454-.492-.454h-.227v1.51h.227zM21.707 22.788c-.154-5.453-.677-10.145 1.138-15.44.25-1.069-.552-1.663-2.403-1.784-1.854.083-3.706 1.973-5.557 5.669-.539 1.004-.836.963-.894-.122l.747-7.938C14.676-.14 13.184-.859 10.262 1.02c-1.681 1.08-2.795 2.5-3.975 4.1C3.685 8.645 1.9 12.575.932 16.909.266 19.894-.673 26.744.724 29.477c.83 1.622 4.3 4.173 5.578 2.067.242-.424.21-1.581.108-2.864-.305-3.84-.457-6.321.217-10.245a33.263 33.263 0 012.355-7.85c.442-1.062 1.993-3.383 1.81-.534-.015 4.17.273 7.05.866 8.639.594 1.34 1.255 1.247 1.986-.28.872-2.505 1.754-4.669 2.645-6.49.371-.684.774-1.343 1.207-1.975.551-.915.699-.623.441.877-.359 2.318-1.95 13.062 1.517 13.544 1.506-.031 2.257-.557 2.253-1.578z" fill="#800A7A"/><path fill-rule="evenodd" clip-rule="evenodd" d="M27.522 22.916c-6.454 2.019-7.468-20.95 3.19-15.985 0 0-.14-.904.24-1.379.484-.606 2.944-.26 2.754.983-.122.802-.375 1.827-.655 2.963-.973 3.95-2.278 9.245.403 11.214 0 0 .166.465-.244.512-.385.045-2.625.11-3.753-1.873a1.993 1.993 0 01-.205-.56c-.547 1.948-1.246 3.974-1.73 4.125zm-.36-3.346c.517-.162 2.681-8.909 2.681-8.909.374-1.834-1.686-3.706-2.84-1.625-2.987 5.387-.744 10.816.16 10.534z" fill="#800A7A"/><path d="M41.302 15.554a35.792 35.792 0 01-.915-2.892c2.75-3.418 5.979-6.624 6.077-6.913.49-1.17-2.727-2.2-3.307-1.703-.448.352-.398 1.995-.398 1.995-.544 1.51-1.647 3.035-2.897 4.495-.632-2.585-1.076-4.786-1.351-4.975-.782-.517-3.936-.417-4.036.292-.07.553 1.131 1.743 1.131 1.743.483 1.653 1.203 3.622 1.96 5.464-2.219 2.42-4.231 4.591-3.858 6.204.5 2.16 2.505 2.241 2.875 2.264.4.016.332-.422.332-.422-.302-.305-.445-1.209-.445-1.209-.127-1.118.733-2.837 2.023-4.695.821 1.83 1.632 3.332 2.11 3.965.748.943 1.598.757 1.914.549.158-.1.127-.235.088-.348-1.303-3.814-.923-2.792-1.303-3.814zm5.92 12.064c-.295.392-.077 1.76-.077 1.76-1.002 3.148-1.925 5.866-3.252 8.94-1.34 3.106-1.906 1.316-1.267-.927.928-3.255 2.189-8.5 2.189-8.807-.003-1.265-2.314-1.965-2.693-1.497-.321.396-.077 1.76-.077 1.76-.879 2.797-3.361 10.944-.956 13.397 1.226 1.25 1.983 1.019 2.495.233.17-.258 1.415-3.11 1.968-4.687.455-1.299.794-1.736.19.846-.308 1.311-1.57 9.46-3.424 8.933-1.522-.432-.988.724.05.831 3.372.346 3.329-.584 4.21-4.03.388-1.47 1.155-6.203 2.073-10.447.631-2.48 1.388-4.573 1.405-4.815-.031-1.258-2.427-1.963-2.834-1.49z" fill="#800A7A"/><path fill-rule="evenodd" clip-rule="evenodd" d="M33.852 45.132c-6.266 1.96-6.669-20.69 3.68-15.87 0 0-.136-.878.233-1.339.47-.589 2.858-.253 2.674.955-.117.77-.359 1.757-.627 2.853-.94 3.835-2.207 9.01.382 10.911 0 0 .161.452-.237.499-.373.043-2.548.105-3.644-1.82a1.933 1.933 0 01-.198-.543c-.532 1.89-1.794 4.207-2.264 4.354zm-.35-3.249c.502-.156 3.187-8.999 3.187-8.999.362-1.781-1.638-3.598-2.758-1.578-2.9 5.23-1.306 10.852-.428 10.577z" fill="#800A7A"/><path fill-rule="evenodd" clip-rule="evenodd" d="M27.727 32.505c-.595 5.011-.802 8.403.43 13.434.141 1.004-.646 1.485-2.362 1.442-1.701-.23-3.695-1.682-5.093-5.24-.413-.97-.69-.958-.833.037l.027 7.376c-.333 3.048-1.212 3.475-3.748 1.502-1.46-1.135-2.368-2.537-3.322-4.108-2.104-3.465-3.421-7.236-3.953-11.31-.366-2.804-.66-9.195.854-11.597.9-1.426 3.754-3.377 4.757-1.33.187.41.062 1.474-.139 2.648-.6 3.513-.947 5.787-.652 9.457a30.732 30.732 0 001.517 7.43c.318 1.016 1.554 3.283 1.623.643.333-3.844.838-6.473 1.517-7.888.658-1.186 1.26-1.045 1.806.422a63.775 63.775 0 001.108 3.935c.443 1.391.698 2.383 1.633 3.527.556.678 1.158 1.078 1.027-.556-.137-2.166-1.375-11.31 1.859-11.466 1.385.154 2.033.702 1.944 1.642z" fill="#800A7A"/><path fill-rule="evenodd" clip-rule="evenodd" d="M51.486 28.693l-1.675-1.499c-4.005-3.004-11.028-2.114-17.544-.269-5.093 1.443-8.473 3.721-11.875 4.944-1.497.484-3.373.202-3.866-1.258-.42-1.244-.205-2.212 1.24-3.166 5.145-3.398 32.492-10.212 33.72 1.248z" fill="#F1B301"/></svg>