<svg width="18" height="18" fill="none" xmlns="http://www.w3.org/2000/svg"><path fill-rule="evenodd" clip-rule="evenodd" d="M10.318 11.634a10.556 10.556 0 01-3.952-3.952l1.238-.884A1 1 0 007.9 5.504 11.422 11.422 0 016.536.921 1 1 0 005.539 0H1.077a1 1 0 00-.995.898A15.51 15.51 0 000 2.5C0 11.06 6.94 18 15.5 18c.538 0 1.072-.027 1.602-.082a1 1 0 00.898-.995v-4.462a1 1 0 00-.921-.997 11.422 11.422 0 01-4.583-1.364 1 1 0 00-1.294.296l-.884 1.238zM5.744 5.668l-1.9 1.357c.212.546.463 1.077.75 1.588l.033.058a12.556 12.556 0 004.702 4.702l.058.033c.511.287 1.042.538 1.588.75l1.357-1.9c1.164.54 2.4.909 3.668 1.097v2.637c-.166.007-.333.01-.5.01C8.044 16 2 9.956 2.001 2.5c0-.167.003-.334.009-.5h2.637a13.41 13.41 0 001.097 3.668z" fill="#F1B301"/></svg>