<svg width="19" height="19" fill="none" xmlns="http://www.w3.org/2000/svg"><path fill-rule="evenodd" clip-rule="evenodd" d="M2.262 0h14.476A2.264 2.264 0 0119 2.262v14.476A2.264 2.264 0 0116.738 19H2.262A2.264 2.264 0 010 16.738V2.262A2.264 2.264 0 012.262 0zm12.357 8.305c.104 0 .209-.006.312-.016h.002V6.176a3.387 3.387 0 01-3.122-3.024H9.993l-.02 8.864c0 1.088-.96 1.944-2.047 1.944a1.969 1.969 0 010-3.937c.06 0 .119.008.177.016l.061.008V8.146l-.056-.004a2.71 2.71 0 00-.182-.008 3.857 3.857 0 103.857 3.857V6.772a3.39 3.39 0 002.836 1.533z" fill="#222124" opacity=".7"/></svg>